PathFileType	4	(X/Y/Z)	/Users/itak/Documents/Research/Walk-IL/dataset/trc/00479_00167.trc
DataRate	CameraRate	NumFrames	NumMarkers	Units	OrigDataRate	OrigDataStartFrame	OrigNumFrames
100.000000	100.000000	4	53	mm	100.000000	0	605
Frame#	Time	RPSI			LPSI			L3			STRN			T10			C7			CLAV			RBAK			LBAK			LSHO			LUPA			LAEL			LAOL			LWTS			LWPS			LFRA			LIFD			LHPS			LHTS			RSHO			RUPA			RAEL			RAOL			RWTS			RWPS			RFRA			RIFD			RHTS			RHPS			RBHD			LFHD			RFHD			LBHD			LHIP			RHIP			RASI			LASI			LKNE			LTHI			LANK			LTIP			LTOE			LMT1			LMT5			LHEE			RKNE			RTHI			RANK			RTIP			RTOE			RMT1			RMT5			RHEE			
		X1	Y1	Z1	X2	Y2	Z2	X3	Y3	Z3	X4	Y4	Z4	X5	Y5	Z5	X6	Y6	Z6	X7	Y7	Z7	X8	Y8	Z8	X9	Y9	Z9	X10	Y10	Z10	X11	Y11	Z11	X12	Y12	Z12	X13	Y13	Z13	X14	Y14	Z14	X15	Y15	Z15	X16	Y16	Z16	X17	Y17	Z17	X18	Y18	Z18	X19	Y19	Z19	X20	Y20	Z20	X21	Y21	Z21	X22	Y22	Z22	X23	Y23	Z23	X24	Y24	Z24	X25	Y25	Z25	X26	Y26	Z26	X27	Y27	Z27	X28	Y28	Z28	X29	Y29	Z29	X30	Y30	Z30	X31	Y31	Z31	X32	Y32	Z32	X33	Y33	Z33	X34	Y34	Z34	X35	Y35	Z35	X36	Y36	Z36	X37	Y37	Z37	X38	Y38	Z38	X39	Y39	Z39	X40	Y40	Z40	X41	Y41	Z41	X42	Y42	Z42	X43	Y43	Z43	X44	Y44	Z44	X45	Y45	Z45	X46	Y46	Z46	X47	Y47	Z47	X48	Y48	Z48	X49	Y49	Z49	X50	Y50	Z50	X51	Y51	Z51	X52	Y52	Z52	X53	Y53	Z53	

1	0	-1374.444458007812	964.9239501953125	-65.29174041748047	-1356.183349609375	962.811279296875	-205.3744659423828	-1352.071655273438	1053.346069335938	-122.5420455932617	-1085.7236328125	1256.89794921875	-114.6031265258789	-1372.1845703125	1176.15283203125	-131.1869964599609	-1313.131958007812	1446.160034179688	-119.3838195800781	-1124.4853515625	1369.548950195312	-121.7120742797852	-1378.402221679688	1325.73095703125	-26.03666687011719	-1337.9326171875	1395.806762695312	-220.9940185546875	-1230.447387695312	1421.074584960938	-293.539794921875	-1228.726806640625	1302.13671875	-393.1009521484375	-1197.28466796875	1084.998657226562	-421.398681640625	-1280.692993164062	1068.80322265625	-362.6409912109375	-1110.031127929688	889.3528442382812	-363.7651977539062	-1150.668212890625	869.2835083007812	-423.0791015625	-1170.266357421875	998.5236206054688	-426.1851196289062	-1093.885986328125	730.9884033203125	-368.1950073242188	-1138.931762695312	792.7337646484375	-420.3271484375	-1087.437866210938	806.1445922851562	-369.5071105957031	-1253.827270507812	1421.23779296875	44.99923324584961	-1271.7509765625	1360.624267578125	121.3548812866211	-1249.553100585938	1073.46826171875	180.0801849365234	-1287.309936523438	1050.132446289062	129.2284698486328	-1111.739624023438	884.7732543945312	169.5675811767578	-1189.435791015625	861.647216796875	209.0623626708984	-1240.92822265625	1016.304809570312	191.1975402832031	-1095.181030273438	728.990478515625	187.3953857421875	-1088.897827148438	789.2444458007812	189.6378173828125	-1162.556030273438	779.9019775390625	217.6725311279297	-1238.383666992188	1650.15966796875	-32.6870002746582	-1090.122802734375	1661.751831054688	-176.5842895507812	-1101.325561523438	1663.54052734375	-46.56854248046875	-1238.880981445312	1652.147094726562	-210.2795562744141	-1208.447265625	865.2706298828125	-306.779296875	-1276.819946289062	861.4098510742188	83.73976898193359	-1163.145629882812	902.7588500976562	38.24440383911133	-1117.356811523438	900.8567504882812	-217.4731903076172	-1216.19384765625	447.728759765625	-281.5433044433594	-1184.555053710938	598.8333740234375	-296.9113159179688	-1284.4189453125	40.90461349487305	-287.9495849609375	-1223.223876953125	301.5322570800781	-298.0380554199219	-1058.841674804688	47.96148300170898	-199.5449829101562	-1136.968383789062	50.9085693359375	-176.9947052001953	-1130.188842773438	48.22281646728516	-289.5518188476562	-1334.952758789062	44.31973266601562	-228.1300201416016	-1247.46484375	471.1297607421875	87.55322265625	-1233.410400390625	731.9012451171875	107.5033950805664	-1298.53759765625	44.17026519775391	122.7165985107422	-1247.588745117188	332.1604614257812	109.0790328979492	-1084.190307617188	48.64223861694336	70.74906921386719	-1147.982177734375	52.55437088012695	35.91143035888672	-1165.19775390625	48.74944686889648	144.4535827636719	-1364.314208984375	35.38738250732422	79.19159698486328	
2	0.01	-1374.369140625	964.8500366210938	-65.30406951904297	-1356.07177734375	962.7412109375	-205.3696441650391	-1352.038452148438	1053.294189453125	-122.5385894775391	-1085.786499023438	1256.962890625	-114.498405456543	-1372.1953125	1176.113525390625	-131.1676330566406	-1313.258056640625	1446.127319335938	-119.27197265625	-1124.606811523438	1369.58544921875	-121.6240921020508	-1378.458129882812	1325.647094726562	-25.95416259765625	-1338.024047851562	1395.785522460938	-220.8726654052734	-1230.51708984375	1421.145751953125	-293.4346923828125	-1228.80322265625	1302.247192382812	-393.0693664550781	-1197.219604492188	1085.229248046875	-421.5260009765625	-1280.609497070312	1068.870361328125	-362.7056884765625	-1109.761840820312	889.5980224609375	-364.2853088378906	-1150.564819335938	869.4887084960938	-423.5026245117188	-1170.17822265625	998.7172241210938	-426.4988708496094	-1093.553833007812	731.2169189453125	-368.8912353515625	-1138.735473632812	792.9727783203125	-420.8641052246094	-1087.207397460938	806.3214721679688	-370.1080932617188	-1253.935424804688	1421.222412109375	45.10678482055664	-1271.8154296875	1360.601440429688	121.4674682617188	-1249.344116210938	1073.4970703125	180.2624816894531	-1287.114624023438	1050.109008789062	129.4425964355469	-1111.3251953125	884.9959106445312	169.8896331787109	-1188.925170898438	861.7703247070312	209.3317413330078	-1240.67724609375	1016.361206054688	191.4179840087891	-1094.42529296875	729.2747802734375	187.7961273193359	-1088.292724609375	789.558837890625	190.0206298828125	-1161.9189453125	780.105712890625	218.0178680419922	-1238.76123046875	1650.154174804688	-32.62671279907227	-1090.126098632812	1661.744384765625	-176.2333679199219	-1101.697998046875	1663.612182617188	-46.25581741333008	-1238.846069335938	1652.056030273438	-210.2847137451172	-1208.220092773438	865.2846069335938	-306.7931213378906	-1276.740966796875	861.3822631835938	83.73670959472656	-1163.05517578125	902.7871704101562	38.25929260253906	-1117.305297851562	900.8698120117188	-217.4596252441406	-1216.129150390625	447.7001342773438	-281.5654907226562	-1184.4033203125	598.8201904296875	-296.9026184082031	-1284.40673828125	40.9017448425293	-287.9676513671875	-1223.13671875	301.5369873046875	-298.0361022949219	-1058.837524414062	47.94895172119141	-199.5379791259766	-1136.973388671875	50.91111373901367	-176.9818725585938	-1130.184326171875	48.21905899047852	-289.5520629882812	-1334.955810546875	44.32095718383789	-228.1394348144531	-1247.3623046875	471.121826171875	87.56732940673828	-1233.303833007812	731.897705078125	107.5096130371094	-1298.535278320312	44.18159866333008	122.7139282226562	-1247.488037109375	332.1430969238281	109.0817337036133	-1084.171020507812	48.6417350769043	70.75733184814453	-1147.982299804688	52.54921340942383	35.90983200073242	-1165.197998046875	48.75995635986328	144.449462890625	-1364.322998046875	35.4105110168457	79.21726989746094	
3	0.02	-1374.27587890625	964.755615234375	-65.31570434570312	-1355.935791015625	962.653564453125	-205.3625335693359	-1351.994140625	1053.23291015625	-122.5292129516602	-1085.857788085938	1257.046142578125	-114.3613586425781	-1372.206298828125	1176.064331054688	-131.1365814208984	-1313.41064453125	1446.088012695312	-119.1290435791016	-1124.750610351562	1369.631958007812	-121.5127487182617	-1378.524169921875	1325.54345703125	-25.85473442077637	-1338.134155273438	1395.761352539062	-220.7190551757812	-1230.609741210938	1421.233642578125	-293.2992248535156	-1228.889892578125	1302.3916015625	-393.0224609375	-1197.1259765625	1085.506103515625	-421.6727294921875	-1280.504760742188	1068.9619140625	-362.7801513671875	-1109.487060546875	889.8804931640625	-364.9170532226562	-1150.441162109375	869.7465209960938	-424.0111389160156	-1170.071655273438	998.9586181640625	-426.8665466308594	-1093.182739257812	731.486328125	-369.7518005371094	-1138.528198242188	793.2534790039062	-421.5289611816406	-1086.960205078125	806.5350952148438	-370.8324279785156	-1254.070190429688	1421.2001953125	45.24816513061523	-1271.90185546875	1360.57080078125	121.6139221191406	-1249.10107421875	1073.53515625	180.4964904785156	-1286.885498046875	1050.078735351562	129.7164764404297	-1110.831909179688	885.2725219726562	170.2784271240234	-1188.326416015625	861.9248046875	209.6914978027344	-1240.37646484375	1016.426940917969	191.69775390625	-1093.525146484375	729.6300048828125	188.3023529052734	-1087.572021484375	789.9463500976562	190.5024261474609	-1161.141967773438	780.344482421875	218.4406127929688	-1239.240478515625	1650.147338867188	-32.55657196044922	-1090.141845703125	1661.736938476562	-175.7817687988281	-1102.169921875	1663.700561523438	-45.85211944580078	-1238.805541992188	1651.953735351562	-210.2767181396484	-1207.945190429688	865.3065185546875	-306.81494140625	-1276.636962890625	861.3444213867188	83.73472595214844	-1162.944580078125	902.8162841796875	38.27986145019531	-1117.244262695312	900.89453125	-217.4470977783203	-1216.033569335938	447.6697082519531	-281.5942687988281	-1184.203002929688	598.8025512695312	-296.8940124511719	-1284.392944335938	40.89866256713867	-287.9866333007812	-1223.010986328125	301.5416564941406	-298.0338439941406	-1058.832275390625	47.93610763549805	-199.5290374755859	-1136.98486328125	50.91466903686523	-176.9577026367188	-1130.17919921875	48.21538925170898	-289.5513000488281	-1334.955810546875	44.32182312011719	-228.1519470214844	-1247.234497070312	471.1135864257812	87.58985137939453	-1233.168212890625	731.887939453125	107.5239562988281	-1298.531616210938	44.19415283203125	122.7099990844727	-1247.35498046875	332.1190185546875	109.0791168212891	-1084.149658203125	48.64091110229492	70.77091217041016	-1147.982421875	52.54233551025391	35.90641784667969	-1165.19873046875	48.77193069458008	144.444091796875	-1364.330078125	35.43473052978516	79.23987579345703	
4	0.03	-1374.169677734375	964.6444091796875	-65.3223876953125	-1355.783081054688	962.5516357421875	-205.352294921875	-1351.939575195312	1053.166625976562	-122.5123672485352	-1085.929809570312	1257.144287109375	-114.1966552734375	-1372.215454101562	1176.00732421875	-131.0921478271484	-1313.581298828125	1446.04443359375	-118.9596328735352	-1124.903564453125	1369.689086914062	-121.3812408447266	-1378.597534179688	1325.4248046875	-25.74209976196289	-1338.255859375	1395.736328125	-220.5384979248047	-1230.722900390625	1421.334106445312	-293.1370239257812	-1228.978149414062	1302.566528320312	-392.9584045410156	-1197.00537109375	1085.81201171875	-421.8281860351562	-1280.383544921875	1069.077392578125	-362.8577575683594	-1109.242065429688	890.1767578125	-365.617919921875	-1150.310180664062	870.0442504882812	-424.5737915039062	-1169.957885742188	999.2369384765625	-427.259521484375	-1092.823852539062	731.7742919921875	-370.7309875488281	-1138.334594726562	793.5585327148438	-422.2857971191406	-1086.722900390625	806.77001953125	-371.6333312988281	-1254.224609375	1421.171020507812	45.41968536376953	-1272.008544921875	1360.532592773438	121.7900924682617	-1248.844848632812	1073.581909179688	180.7762451171875	-1286.641967773438	1050.0419921875	130.0420837402344	-1110.294555664062	885.5894775390625	170.7142639160156	-1187.685791015625	862.103271484375	210.1346588134766	-1240.048095703125	1016.496826171875	192.0283813476562	-1092.543090820312	730.0361328125	188.8917999267578	-1086.78662109375	790.3837890625	191.0630645751953	-1160.274169921875	780.599853515625	218.9199676513672	-1239.803344726562	1650.139282226562	-32.48167419433594	-1090.173828125	1661.732177734375	-175.2455749511719	-1102.720336914062	1663.80078125	-45.37026596069336	-1238.764282226562	1651.8486328125	-210.2489166259766	-1207.643432617188	865.3359375	-306.8469543457031	-1276.509765625	861.296630859375	83.73513031005859	-1162.819213867188	902.8425903320312	38.30475997924805	-1117.17822265625	900.9307250976562	-217.4360046386719	-1215.901245117188	447.6408386230469	-281.6277465820312	-1183.96142578125	598.7804565429688	-296.8854064941406	-1284.379150390625	40.89628982543945	-288.0044250488281	-1222.847900390625	301.5436401367188	-298.0317993164062	-1058.826416015625	47.92444229125977	-199.5180969238281	-1137.005737304688	50.91894912719727	-176.9189910888672	-1130.173706054688	48.2124137878418	-289.5489196777344	-1334.9521484375	44.32258987426758	-228.166748046875	-1247.083374023438	471.1048278808594	87.61930847167969	-1233.006958007812	731.8699340820312	107.5469741821289	-1298.5263671875	44.20749282836914	122.704833984375	-1247.191528320312	332.0878295898438	109.0689086914062	-1084.127563476562	48.64007949829102	70.7901611328125	-1147.984130859375	52.53443908691406	35.90280914306641	-1165.199340820312	48.78443145751953	144.4371795654297	-1364.334228515625	35.45766830444336	79.25630950927734	
